<svg width="22" height="22" viewBox="0 0 22 22" fill="none" xmlns="http://www.w3.org/2000/svg">
<path d="M4.63248 20.998C4.26775 20.9986 3.90456 20.9507 3.55248 20.8555C2.49566 20.5541 1.59905 19.8506 1.05503 18.8957C0.511 17.9409 0.362892 16.8108 0.642477 15.748L2.38998 9.11802C2.52787 8.58416 2.77064 8.08309 3.10414 7.644C3.43764 7.20492 3.8552 6.8366 4.33248 6.56052C4.7987 6.29048 5.31387 6.11564 5.84814 6.04611C6.38242 5.97659 6.92518 6.01378 7.44498 6.15552C7.9962 6.30725 8.51002 6.57151 8.95405 6.93165C9.39809 7.29179 9.76273 7.73999 10.025 8.24802H11.975C12.2345 7.73638 12.598 7.28462 13.0423 6.92169C13.4866 6.55876 14.0018 6.29269 14.555 6.14052C15.0748 5.99878 15.6175 5.9616 16.1518 6.03112C16.6861 6.10064 17.2013 6.27548 17.6675 6.54552C18.1445 6.82193 18.5619 7.19035 18.8953 7.62938C19.2288 8.06842 19.4717 8.56932 19.61 9.10302L21.3575 15.748C21.6412 16.8139 21.4943 17.9486 20.9484 18.9071C20.4025 19.8656 19.5015 20.5708 18.44 20.8705C17.9202 21.0123 17.3774 21.0494 16.8431 20.9799C16.3089 20.9104 15.7937 20.7356 15.3275 20.4655C14.8502 20.1894 14.4326 19.8211 14.0991 19.382C13.7656 18.9429 13.5229 18.4419 13.385 17.908L13.25 17.248H8.74998L8.57748 17.893C8.43958 18.4269 8.19681 18.9279 7.86331 19.367C7.52981 19.8061 7.11226 20.1744 6.63498 20.4505C6.02559 20.802 5.33593 20.9906 4.63248 20.998ZM6.37248 7.49802C5.91988 7.49955 5.47542 7.61842 5.08248 7.84302C4.777 8.0213 4.50976 8.25818 4.2961 8.54005C4.08245 8.82192 3.92659 9.14323 3.83748 9.48552L2.08998 16.1155C1.90712 16.7986 1.99952 17.5261 2.34732 18.1418C2.69511 18.7574 3.27056 19.2121 3.94998 19.408C4.27811 19.4975 4.62073 19.5211 4.95801 19.4773C5.2953 19.4335 5.62056 19.3233 5.91498 19.153C6.22072 18.9751 6.48816 18.7383 6.70185 18.4564C6.91554 18.1744 7.07125 17.853 7.15998 17.5105L7.62498 15.748H14.375L14.8325 17.5105C15.014 18.2011 15.4616 18.7917 16.0775 19.153C16.3733 19.3231 16.6999 19.4332 17.0383 19.477C17.3768 19.5207 17.7206 19.4973 18.05 19.408C18.7302 19.2139 19.3064 18.7592 19.6532 18.1427C20.0001 17.5262 20.0897 16.7977 19.9025 16.1155L18.155 9.48552C18.0687 9.14304 17.9148 8.82128 17.7022 8.5392C17.4897 8.25712 17.2229 8.02041 16.9175 7.84302C16.6216 7.67289 16.2951 7.5628 15.9566 7.51904C15.6182 7.47528 15.2744 7.49872 14.945 7.58802C14.5376 7.70414 14.1638 7.91578 13.8547 8.20536C13.5455 8.49494 13.3099 8.8541 13.1675 9.25302L12.9875 9.74802H9.01248L8.83248 9.25302C8.68874 8.85357 8.45182 8.49415 8.14139 8.20459C7.83095 7.91502 7.45595 7.70365 7.04748 7.58802C6.82737 7.52867 6.60044 7.49841 6.37248 7.49802Z" fill="#918A89"/>
<path d="M6.5 13.498C6.20333 13.498 5.91332 13.4101 5.66665 13.2453C5.41997 13.0804 5.22771 12.8462 5.11418 12.5721C5.00065 12.298 4.97094 11.9964 5.02882 11.7054C5.0867 11.4144 5.22956 11.1472 5.43934 10.9374C5.64912 10.7276 5.91639 10.5847 6.20737 10.5269C6.49834 10.469 6.79994 10.4987 7.07403 10.6122C7.34812 10.7258 7.58238 10.918 7.74721 11.1647C7.91203 11.4114 8 11.7014 8 11.998C8 12.3959 7.84197 12.7774 7.56066 13.0587C7.27936 13.34 6.89783 13.498 6.5 13.498Z" fill="#918A89"/>
<path d="M15.5 11.248C15.9142 11.248 16.25 10.9123 16.25 10.498C16.25 10.0838 15.9142 9.74805 15.5 9.74805C15.0858 9.74805 14.75 10.0838 14.75 10.498C14.75 10.9123 15.0858 11.248 15.5 11.248Z" fill="#918A89"/>
<path d="M15.5 14.248C15.9142 14.248 16.25 13.9123 16.25 13.498C16.25 13.0838 15.9142 12.748 15.5 12.748C15.0858 12.748 14.75 13.0838 14.75 13.498C14.75 13.9123 15.0858 14.248 15.5 14.248Z" fill="#918A89"/>
<path d="M14 12.748C14.4142 12.748 14.75 12.4123 14.75 11.998C14.75 11.5838 14.4142 11.248 14 11.248C13.5858 11.248 13.25 11.5838 13.25 11.998C13.25 12.4123 13.5858 12.748 14 12.748Z" fill="#918A89"/>
<path d="M17 12.748C17.4142 12.748 17.75 12.4123 17.75 11.998C17.75 11.5838 17.4142 11.248 17 11.248C16.5858 11.248 16.25 11.5838 16.25 11.998C16.25 12.4123 16.5858 12.748 17 12.748Z" fill="#918A89"/>
<path d="M9.3125 5.24758L8.1875 4.25008C8.53941 3.85105 8.97219 3.53148 9.45711 3.31258C9.94202 3.09368 10.468 2.98047 11 2.98047C11.532 2.98047 12.058 3.09368 12.5429 3.31258C13.0278 3.53148 13.4606 3.85105 13.8125 4.25008L12.6875 5.24758C12.4764 5.00816 12.2167 4.81642 11.9257 4.68508C11.6348 4.55374 11.3192 4.48581 11 4.48581C10.6808 4.48581 10.3652 4.55374 10.0743 4.68508C9.78332 4.81642 9.52364 5.00816 9.3125 5.24758Z" fill="#918A89"/>
<path d="M14.9375 3.27529C14.4448 2.71666 13.8389 2.26925 13.16 1.96279C12.4812 1.65634 11.7448 1.49784 11 1.49784C10.2552 1.49784 9.51883 1.65634 8.83995 1.96279C8.16107 2.26925 7.55517 2.71666 7.0625 3.27529L5.9375 2.28529C6.57093 1.56705 7.34995 0.991812 8.2228 0.597795C9.09564 0.203777 10.0423 0 11 0C11.9577 0 12.9044 0.203777 13.7772 0.597795C14.6501 0.991812 15.4291 1.56705 16.0625 2.28529L14.9375 3.27529Z" fill="#918A89"/>
</svg>
